<svg width="93" height="93" viewBox="0 0 93 93" fill="none" xmlns="http://www.w3.org/2000/svg">
<circle cx="46.5" cy="46.5" r="46.5" fill="#FF9C00"/>
<circle cx="46.5" cy="46.5" r="31.5" fill="#2927A6"/>
<path d="M46.5245 29.0816C46.6741 28.6209 47.3259 28.6209 47.4755 29.0816L51.0148 39.9742C51.2156 40.5922 51.7915 41.0106 52.4413 41.0106H63.8945C64.3789 41.0106 64.5802 41.6305 64.1884 41.9152L54.9226 48.6472C54.3969 49.0291 54.1769 49.7062 54.3777 50.3242L57.9169 61.2168C58.0666 61.6775 57.5393 62.0605 57.1475 61.7758L47.8817 55.0438C47.3559 54.6619 46.6441 54.6619 46.1183 55.0438L36.8525 61.7758C36.4607 62.0605 35.9334 61.6775 36.0831 61.2168L39.6223 50.3242C39.8231 49.7062 39.6031 49.0291 39.0774 48.6472L29.8116 41.9152C29.4197 41.6305 29.6211 41.0106 30.1055 41.0106H41.5587C42.2085 41.0106 42.7844 40.5922 42.9852 39.9742L46.5245 29.0816Z" fill="#FF9C00" stroke="black"/>
</svg>
